<?xml version="1.0" standalone="no"?>
<!DOCTYPE svg PUBLIC "-//W3C//DTD SVG 20010904//EN"
 "http://www.w3.org/TR/2001/REC-SVG-20010904/DTD/svg10.dtd">
<svg version="1.0" xmlns="http://www.w3.org/2000/svg"
 width="540.000000pt" height="540.000000pt" viewBox="0 0 540.000000 540.000000"
 preserveAspectRatio="xMidYMid meet">
<metadata>
Created by potrace 1.11, written by Peter Selinger 2001-2013
</metadata>
<g transform="translate(0.000000,540.000000) scale(0.100000,-0.100000)"
fill="#000000" stroke="none">
<path d="M113 4374 c-18 -9 -43 -33 -55 -53 l-23 -36 -3 -1051 c-2 -915 -4
-1053 -17 -1064 -21 -18 -23 -881 -1 -899 8 -7 15 -40 18 -84 6 -84 26 -130
71 -157 30 -19 52 -20 352 -20 l320 0 49 213 c122 524 182 773 189 785 11 16
3362 18 3373 1 3 -6 56 -232 118 -502 l111 -492 321 -3 c319 -2 321 -2 355 21
48 32 69 79 69 158 0 50 4 70 18 82 16 15 17 48 17 445 0 395 -2 432 -18 449
-16 18 -17 85 -17 1064 0 997 -1 1046 -19 1079 -10 19 -33 45 -51 58 l-33 22
-2556 0 c-2322 0 -2559 -2 -2588 -16z m1611 -1044 c121 -42 206 -108 276 -215
114 -175 112 -403 -5 -579 -73 -110 -196 -192 -332 -221 -85 -18 -121 -18
-207 0 -113 24 -189 66 -270 148 -132 134 -183 307 -141 482 24 105 58 166
136 249 68 73 166 130 262 152 80 18 204 11 281 -16z m2238 2 c130 -43 249
-145 307 -264 156 -317 -23 -681 -369 -754 -350 -74 -676 238 -622 594 33 212
199 390 406 438 77 17 202 11 278 -14z"/>
<path d="M1500 3120 c-47 -9 -99 -33 -134 -63 l-30 -24 27 -18 27 -17 -21 -30
c-20 -28 -22 -28 -46 -12 -31 20 -38 12 -54 -65 -12 -57 -4 -141 12 -141 6 0
19 4 29 10 15 8 20 4 30 -20 13 -31 7 -50 -16 -50 -55 0 63 -111 143 -135 18
-5 24 -1 29 19 5 22 12 26 41 26 33 0 34 -1 28 -31 l-7 -30 39 7 c53 9 101 30
141 61 l35 26 -22 18 c-22 18 -22 19 -5 48 16 27 19 29 38 15 11 -8 24 -14 27
-14 15 0 32 77 33 138 0 71 -11 90 -43 73 -18 -10 -22 -7 -36 18 -19 38 -19
38 10 45 14 4 25 11 25 16 0 17 -74 85 -110 102 -59 28 -75 27 -78 -4 -3 -25
-8 -28 -39 -28 -34 0 -35 1 -31 30 6 37 3 38 -42 30z"/>
<path d="M3768 3122 c-24 -3 -26 -6 -18 -28 6 -14 10 -27 10 -29 0 -4 -63 -26
-65 -23 -1 2 -6 16 -11 31 l-9 28 -46 -31 c-43 -28 -86 -80 -102 -123 -5 -14
0 -19 23 -24 26 -5 29 -9 24 -32 -10 -40 -14 -43 -46 -35 l-31 6 6 -52 c6 -51
49 -160 63 -160 4 0 16 7 26 17 17 15 20 15 43 -7 24 -22 24 -24 8 -43 -17
-18 -17 -20 2 -33 28 -21 112 -44 158 -44 38 0 39 1 35 29 -4 25 0 30 29 39
30 9 34 8 39 -14 7 -28 7 -28 42 -10 33 17 73 59 101 106 26 43 26 50 2 50
-26 0 -34 15 -27 46 5 19 13 24 37 24 l31 0 -7 48 c-7 50 -26 102 -51 140
l-16 24 -22 -21 -22 -21 -24 25 c-23 24 -23 25 -5 45 21 23 21 22 -23 44 -38
19 -113 33 -154 28z"/>
<path d="M1065 1918 c-3 -13 -52 -221 -109 -463 l-102 -440 1839 -3 c1012 -1
1841 -1 1843 0 1 2 -45 208 -102 458 -57 250 -104 458 -104 463 0 4 -733 7
-1630 7 l-1630 0 -5 -22z m940 -379 c31 -27 35 -37 35 -78 -1 -93 -87 -140
-166 -92 -92 56 -47 201 63 201 22 0 44 -10 68 -31z m1511 -3 c28 -28 34 -41
34 -77 -1 -66 -44 -109 -110 -109 -104 0 -145 147 -56 201 49 30 92 25 132
-15z m-2044 -41 c75 -51 74 -162 -2 -213 -29 -19 -44 -23 -84 -19 -124 11
-161 164 -57 234 45 31 96 30 143 -2z m2569 2 c42 -28 59 -60 59 -115 0 -34
-6 -49 -33 -78 -28 -30 -42 -37 -83 -41 -65 -6 -113 24 -134 85 -40 117 89
218 191 149z"/>
</g>
</svg>
